<svg width="1629" height="440" viewBox="0 0 1629 440" fill="none" xmlns="http://www.w3.org/2000/svg">
<path fill-rule="evenodd" clip-rule="evenodd" d="M556.263 330.769C556.263 330.769 530.277 386.886 459.229 383.292C459.229 383.292 511.478 373.064 540.229 325.793C540.229 325.793 556.263 299.807 558.198 283.221C560.133 266.635 561.239 248.666 557.645 229.592C557.645 229.592 550.734 192.549 539.952 171.263C539.952 171.263 524.748 136.432 508.714 116.804C508.714 116.804 480.516 81.6966 447.066 65.1102C447.066 65.1102 416.38 46.8652 381.547 44.6536C381.547 44.6536 353.073 42.442 337.039 44.6536C321.005 46.8653 308.012 49.353 296.954 52.9467C295.528 53.4102 294.235 53.8093 293.009 54.1879L293.007 54.1884L293.007 54.1886C284.724 56.7453 279.466 58.3686 256.592 72.5739C256.592 72.5739 262.575 67.4167 266.545 64.2807C266.545 64.2807 320.452 14.2454 399.24 29.4492C399.24 29.4492 277.879 -50.4409 118.368 52.9467C118.368 52.9467 184.991 29.4492 231.435 39.9549C231.435 39.9549 152.649 33.1375 70.82 97.7307C70.82 97.7307 -2.15979 154.954 0.0491011 289.027C0.0491011 289.027 9.45104 360.625 91.5563 358.137C74.0835 370.169 21.6148 355.649 3.09273 321.647C3.09273 321.647 2.17435 323.582 4.47496 338.233L5.58076 344.315L6.963 350.949L8.89814 358.69L11.1097 366.983L13.5978 374.723L15.4811 380.657L17.9691 387.845L19.9043 393.097L22.1158 398.073L24.051 401.667L26.038 405.685C30.6858 415.489 44.0071 434.157 44.0071 434.157H149.213V293.933H104.719C106.752 276.397 103.794 266.368 71.9101 247.191H149.213V195.955L93.0337 184.719V179.775L75.0561 176.18V129.888C75.0561 129.888 274.157 184.719 483.146 129.888V176.18L466.517 179.775V184.719L411.236 195.955V247.191H487.64C487.64 247.191 449.438 261.573 453.933 293.933H411.236V434.157H517.84C551.29 386.887 556.263 330.769 556.263 330.769ZM363.595 434.157V293.933H196.404V434.157H363.595ZM195.955 246.742V199.551C257.438 208.899 333.333 203.446 363.595 199.551V246.742H195.955ZM826.52 265.44L815.08 277.98H797.04V241.46C802.98 240.58 804.52 238.38 804.96 235.3L772.84 232V277.98H753.92L728.62 267.64V287.03L707.5 266.32L693.64 279.74H643.04L645.02 285.9H694.582C685.807 314.953 664.856 349.899 640.84 374.12L642.82 376.1C653.886 369.59 664.5 361.512 674.28 352.512V438.14H678.68C690.56 438.14 698.48 432.2 698.48 430.44V336.04C703.039 343.459 707.511 352.407 708.82 360.26C725.906 373.886 744.268 341.797 698.48 328.376V326.318C707.529 314.792 715.05 302.835 720.48 291.4C724.277 291.07 726.836 290.616 728.62 289.666V384.24H732.36C742.48 384.24 752.6 378.74 752.6 376.32V367.52H772.84V439.02H777.46C786.48 439.02 797.04 433.08 797.04 430.44V367.52H817.28V382.48H821.02C829.38 382.48 840.82 376.98 841.04 375.22V288.32C845.66 287.44 848.74 285.46 850.06 283.7L826.52 265.44ZM817.28 361.14V324.4H797.04V361.14H817.28ZM772.84 361.14V324.4H752.6V361.14H772.84ZM752.6 318.24H772.84V284.36H752.6V318.24ZM797.04 284.36V318.24H817.28V284.36H797.04ZM677.36 265.22C698.48 282.82 723.78 242.56 666.58 232L664.82 233.1C670.54 241.46 676.26 253.78 677.36 265.22ZM939.38 342C965.56 362.68 985.14 308.12 910.78 273.58L908.14 274.9C920.24 294.04 934.76 320 939.38 342ZM1090.52 289.64C1096.02 290.08 1098.22 288.76 1099.1 286.56L1065.66 267.64C1060.16 286.34 1047.18 318.46 1035.3 339.8L1037.28 341.78C1057.96 326.16 1077.76 305.04 1090.52 289.64ZM1010.91 291.446C1007.92 357.152 993.642 406.785 903.08 438.58L901.1 435.28C983.601 389.997 983.51 331.111 983.383 249.489C983.375 244.267 983.367 238.951 983.38 233.54L1020.12 237.06C1019.7 240.209 1017.68 242.356 1012.72 243.12C1017.05 336.416 1036.4 385.05 1110.76 410.42L1110.54 412.84C1097.78 415.48 1089.42 424.06 1086.56 438.14C1032.65 412.182 1016.33 364.355 1010.91 291.446ZM1290.87 304.701C1307.44 298.094 1324.86 289.359 1334.5 282.38L1360.9 302.4C1359.36 303.94 1357.16 304.16 1353.64 303.06C1341.99 306.368 1323.38 309.394 1304.94 311.278C1308.17 327.136 1312.96 341.838 1319.19 354.912C1327.74 341.776 1336.91 325.819 1341.1 316.92L1367.28 336.72C1365.96 338.48 1362.44 339.8 1358.26 338.04C1350.74 344.089 1336.51 353.957 1322.68 361.789C1334.59 383.841 1350.93 400.548 1371.02 409.32L1370.58 411.74C1361.34 414.6 1353.2 423.62 1349.68 437.26C1318.57 412.374 1306.92 374.098 1301.46 311.619C1296.39 312.098 1291.37 312.486 1286.54 312.765V315.38V322.42V404.17C1294.69 402.48 1303.53 400.558 1312.28 398.54L1312.94 400.96C1305.21 407.305 1289.61 419.546 1271.47 431.565C1269.27 435.455 1266.26 437.92 1263.66 439.02L1251.12 410.64C1260.8 406.02 1262.34 403.82 1262.34 398.98V322.42V311.86V301.161C1257.96 304.858 1253.41 308.204 1248.7 311.2L1246.28 309.22C1258.82 290.74 1270.48 261.26 1275.76 231.56L1310.52 242.56C1309.64 245.2 1306.78 246.96 1301.94 246.96C1297.87 256.077 1293.25 264.434 1288.16 272.04H1332.3L1345.72 253.78C1345.72 253.78 1360.9 266.1 1369.92 274.68C1369.26 277.1 1367.06 278.2 1363.98 278.2H1283.81C1278.47 285.37 1272.69 291.794 1266.51 297.478L1290.87 304.701ZM1199.64 269.18C1220.54 286.12 1242.98 244.76 1187.32 232.88L1185.34 234.2C1192.16 243 1198.98 256.86 1199.64 269.18ZM1206.91 316.04C1207.8 304.883 1208.29 293.681 1208.54 282.6H1253.32C1256.4 282.6 1258.82 281.5 1259.26 279.08C1250.9 270.5 1236.16 258.18 1236.16 258.18L1223.4 276.22H1208.66H1182.92H1162.24L1164 282.6H1183.16C1184.87 334.787 1181.44 391.59 1161.36 436.82L1163.78 438.58C1191.53 407.261 1202.28 365.289 1206.37 322.2H1223.02C1221.42 378.6 1218.35 404.017 1212.4 409.54C1210.64 411.3 1208.88 411.96 1205.58 411.96C1201.62 411.96 1192.82 411.52 1187.32 410.86L1187.1 413.94C1193.92 415.7 1198.54 418.12 1200.96 421.64C1203.6 424.72 1204.04 430.44 1204.04 437.7C1214.38 437.7 1222.96 435.28 1229.78 428.9C1240.56 419 1244.52 395.24 1246.5 325.94C1251.12 325.5 1253.76 323.96 1255.52 321.98L1233.3 303.5L1220.98 316.04H1206.91ZM1463.15 393.967C1453.23 409.675 1440.27 424.202 1423.82 435.72L1421.62 433.08C1441.84 409.357 1455.48 373.448 1461.09 342.22H1449.78L1442.74 349.26L1424.48 336.5C1426.44 334.994 1429.63 333.282 1432.72 332.07C1438.71 320.459 1446.64 302.959 1451.4 290.96H1424.48L1422.5 284.8H1451.1L1460.78 274.68L1481.02 292.72C1479.09 294.654 1475.15 295.706 1470.46 296.088C1465.64 306.948 1457.51 323.992 1451.41 336.06H1459.68L1471.78 323.96L1492.68 341.78C1491.36 343.98 1489.16 344.42 1484.32 344.86C1480.48 359.425 1474.57 374.518 1466.26 388.82C1469.15 391.874 1472.3 394.462 1475.74 396.652C1495.06 361.581 1496.54 319.295 1495.06 275.78H1477.94L1476.18 269.4H1528.98L1538.66 255.76C1538.66 255.76 1547.28 263.504 1553.67 270.019C1556.94 258.4 1559.41 245.533 1560.66 232.88L1589.92 239.92C1589.04 242.56 1586.62 244.54 1581.78 244.76C1579.17 252.003 1576.12 258.866 1572.67 265.22H1593.88L1605.32 250.48C1605.32 250.48 1618.08 260.82 1625.78 268.08C1625.12 270.5 1623.14 271.6 1620.06 271.6H1568.96C1563 281.19 1556.01 289.361 1548.12 295.58L1545.04 293.6C1547.56 288.329 1549.91 282.232 1552 275.612C1551.42 275.725 1550.79 275.78 1550.1 275.78H1516.78C1516.55 285.512 1516.11 295.068 1515.31 304.38H1523.92L1534.7 293.6L1554.28 309.88C1552.74 311.64 1550.32 312.96 1545.92 313.4C1544.6 364.22 1542.84 386.66 1534.04 394.58C1529.2 398.76 1523.26 400.3 1515.78 400.52C1515.78 396.34 1514.68 391.5 1512.48 388.86C1510.28 386.22 1505.44 383.58 1499.5 382.26V378.96C1505.22 379.4 1513.14 379.84 1516.22 379.84C1517.98 379.84 1518.86 379.62 1519.96 378.3C1523.74 373.675 1525.12 353.584 1526.19 310.54H1514.71C1511.11 344.47 1501.96 374.892 1478.86 398.49C1494.68 407.052 1516.52 408.44 1548.56 408.44C1566.38 408.44 1609.72 408.44 1628.42 408V410.86C1620.06 412.84 1615.66 421.2 1615.44 430.66H1548.12C1503.71 430.66 1479.3 423.417 1463.15 393.967ZM1446.48 272.04C1469.14 287 1488.06 243 1430.2 237.28L1428.44 238.6C1436.14 246.74 1444.5 260.16 1446.48 272.04ZM1504.34 262.8C1522.16 278.42 1544.82 244.32 1496.86 233.54L1494.88 234.64C1499.06 241.9 1503.9 253.12 1504.34 262.8ZM1598.06 279.3L1587.06 290.52H1554.94L1556.92 296.9H1587.31C1585.34 302.234 1582.65 308.604 1579.87 313.914L1572.1 313.18V335.62H1547.46L1549.22 342H1572.1V376.98C1572.1 379.62 1571.44 380.5 1568.58 380.5C1565.5 380.5 1551.2 379.4 1551.2 379.4V382.48C1558.46 383.8 1561.98 386 1564.18 388.64C1566.6 391.72 1567.04 396.34 1567.48 402.28C1589.7 400.3 1592.56 392.6 1592.56 377.86V342H1621.82C1624.9 342 1626.88 340.9 1627.32 338.48C1620.94 331.44 1609.5 321.32 1609.5 321.32L1599.38 335.62H1592.56V321.32C1597.4 320.66 1599.6 319.12 1600.04 315.82L1588.5 314.73C1596.32 309.979 1604.08 304.051 1609.72 299.54C1613.9 299.1 1616.54 298.66 1618.3 297.12L1598.06 279.3Z" fill="white"/>
</svg>
