<svg width="1970" height="435" viewBox="0 0 1970 435" fill="none" xmlns="http://www.w3.org/2000/svg">
<path fill-rule="evenodd" clip-rule="evenodd" d="M556.263 330.769C556.263 330.769 530.277 386.886 459.229 383.292C459.229 383.292 511.478 373.064 540.229 325.793C540.229 325.793 556.263 299.807 558.198 283.221C560.133 266.635 561.239 248.666 557.645 229.592C557.645 229.592 550.734 192.549 539.952 171.263C539.952 171.263 524.748 136.432 508.714 116.804C508.714 116.804 480.516 81.6966 447.066 65.1102C447.066 65.1102 416.38 46.8652 381.547 44.6536C381.547 44.6536 353.073 42.442 337.039 44.6536C321.005 46.8653 308.012 49.353 296.954 52.9467C295.528 53.4102 294.235 53.8093 293.009 54.188L293.007 54.1885L293.007 54.1886C284.724 56.7453 279.466 58.3686 256.592 72.5739C256.592 72.5739 262.575 67.4168 266.545 64.2808C266.545 64.2808 320.452 14.2454 399.24 29.4492C399.24 29.4492 277.879 -50.4409 118.368 52.9467C118.368 52.9467 184.992 29.4492 231.436 39.9549C231.436 39.9549 152.649 33.1375 70.82 97.7307C70.82 97.7307 -2.15974 154.954 0.0491498 289.027C0.0491498 289.027 9.45109 360.625 91.5563 358.137C74.0836 370.169 21.6148 355.649 3.09278 321.647C3.09278 321.647 2.1744 323.582 4.47501 338.233L5.58081 344.315L6.96305 350.949L8.89819 358.69L11.1098 366.983L13.5978 374.723L15.4811 380.657L17.9692 387.845L19.9043 393.097L22.1159 398.073L24.051 401.667L26.038 405.685C30.6858 415.489 44.0072 434.157 44.0072 434.157H149.214V293.933H104.719C106.752 276.397 103.794 266.368 71.9101 247.191H149.214V195.955L93.0337 184.719V179.775L75.0562 176.18V129.888C75.0562 129.888 274.157 184.719 483.146 129.888V176.18L466.517 179.775V184.719L411.236 195.955V247.191H487.64C487.64 247.191 449.438 261.573 453.933 293.933H411.236V434.157H517.84C551.29 386.887 556.263 330.769 556.263 330.769ZM363.596 434.157V293.933H196.405V434.157H363.596ZM195.955 246.742V199.551C257.438 208.899 333.333 203.446 363.595 199.551V246.742H195.955ZM894.994 245.134C899.222 242.718 904.155 240.805 909.792 239.396C908.785 236.175 907.074 233.96 904.658 232.752C902.443 231.343 899.625 230.336 896.202 229.732C895.598 227.92 894.088 226.511 891.672 225.504L884.424 222.484C882.209 221.477 880.8 220.068 880.196 218.256C877.78 218.055 875.565 217.652 873.552 217.048C871.539 216.444 869.626 215.84 867.814 215.236C865.599 214.632 863.586 214.129 861.774 213.726C859.962 213.323 858.15 213.122 856.338 213.122C854.929 215.941 852.211 217.853 848.184 218.86C844.157 219.867 839.829 220.269 835.198 220.068C830.567 219.867 826.44 219.565 822.816 219.162C823.017 217.149 823.118 215.135 823.118 213.122V206.78V198.022C823.319 195.203 823.722 192.485 824.326 189.868C824.527 189.063 824.729 188.358 824.93 187.754L826.138 185.942C826.742 184.935 827.245 184.029 827.648 183.224C828.051 182.217 828.252 181.211 828.252 180.204C828.051 174.365 826.138 170.137 822.514 167.52C818.89 164.903 815.769 162.688 813.152 160.876C808.924 157.856 804.394 154.333 799.562 150.306C794.931 146.279 790.099 144.165 785.066 143.964C785.871 148.393 786.777 152.621 787.784 156.648C788.791 160.675 789.797 164.5 790.804 168.124C792.817 176.177 794.629 184.231 796.24 192.284C797.851 200.337 798.455 209.8 798.052 220.672C789.999 222.685 781.945 223.994 773.892 224.598C765.839 225.001 758.591 226.309 752.148 228.524C747.719 229.933 743.793 231.947 740.37 234.564C736.947 237.181 734.129 240.805 731.914 245.436C735.739 245.235 739.263 246.342 742.484 248.758C745.705 251.174 747.819 254.295 748.826 258.12C750.034 261.945 749.531 265.972 747.316 270.2L749.128 272.314C749.933 275.938 750.336 279.763 750.336 283.79C750.336 287.615 750.235 291.34 750.034 294.964C749.833 299.595 749.732 303.923 749.732 307.95C749.933 311.775 750.94 314.997 752.752 317.614C752.752 318.218 752.45 318.621 751.846 318.822C751.041 319.426 750.739 320.131 750.94 320.936C753.96 325.567 757.886 328.889 762.718 330.902C767.147 332.513 772.181 333.217 777.818 333.016C783.455 332.613 789.596 332.009 796.24 331.204C797.247 331.003 798.052 330.902 798.656 330.902C799.461 335.331 799.864 340.365 799.864 346.002C800.065 351.639 800.065 357.478 799.864 363.518C799.663 366.538 799.562 369.659 799.562 372.88V382.242C799.763 390.698 800.569 398.651 801.978 406.1C803.387 413.751 806.307 419.891 810.736 424.522C814.36 418.683 816.877 412.14 818.286 404.892C819.897 397.644 820.903 389.993 821.306 381.94C821.709 373.081 821.91 364.223 821.91 355.364C822.111 346.304 822.917 338.049 824.326 330.6H829.762C831.574 330.399 833.285 330.197 834.896 329.996C839.929 329.392 844.459 329.291 848.486 329.694C852.513 330.097 855.432 332.412 857.244 336.64C859.459 335.231 861.371 334.425 862.982 334.224C864.593 334.023 866.807 334.023 869.626 334.224H872.042C876.069 323.151 878.887 310.668 880.498 296.776C882.109 282.884 883.518 268.891 884.726 254.798C887.545 250.57 890.967 247.349 894.994 245.134ZM747.014 228.826C750.437 227.417 753.255 225.303 755.47 222.484C755.067 221.276 754.665 220.169 754.262 219.162C753.859 218.155 753.557 216.343 753.356 213.726L750.336 212.518C749.531 211.914 748.625 211.411 747.618 211.008C743.189 208.793 738.256 206.78 732.82 204.968C727.384 202.955 721.344 202.451 714.7 203.458C713.693 204.263 713.19 205.169 713.19 206.176C713.391 206.981 713.19 207.585 712.586 207.988C695.674 210.807 680.071 212.719 665.776 213.726C651.683 214.531 638.898 213.021 627.422 209.196C628.63 216.847 631.751 223.793 636.784 230.034C641.817 236.275 647.153 241.51 652.79 245.738C654.803 244.933 656.716 244.127 658.528 243.322C660.541 242.517 662.555 241.611 664.568 240.604C670.608 237.987 676.749 235.571 682.99 233.356C689.433 231.141 696.177 230.336 703.224 230.94C703.023 231.544 703.224 232.148 703.828 232.752C704.029 233.155 704.13 233.557 704.13 233.96C703.123 235.168 702.217 236.477 701.412 237.886L699.298 242.114C697.687 245.134 695.976 247.953 694.164 250.57C692.352 252.986 689.835 254.093 686.614 253.892C686.413 262.549 684.097 270.099 679.668 276.542C675.44 282.783 671.313 288.32 667.286 293.152C659.434 303.017 650.877 312.581 641.616 321.842C632.355 331.103 622.389 340.163 611.718 349.022C614.939 352.243 618.362 353.854 621.986 353.854C625.61 353.653 629.335 352.646 633.16 350.834C637.589 348.619 641.817 345.801 645.844 342.378C650.072 338.955 653.797 335.935 657.018 333.318C664.467 327.681 670.91 321.741 676.346 315.5C681.983 309.259 686.614 303.42 690.238 297.984C692.05 306.641 692.654 315.5 692.05 324.56C691.446 333.62 690.54 342.479 689.332 351.136L688.124 358.988L687.52 366.236C686.513 376.705 686.614 386.269 687.822 394.926C689.231 403.583 693.862 410.529 701.714 415.764C702.117 415.764 702.721 415.865 703.526 416.066C704.331 416.267 705.036 416.267 705.64 416.066C706.445 416.066 707.049 415.563 707.452 414.556C709.465 405.295 710.573 396.033 710.774 386.772C710.975 377.309 710.875 367.545 710.472 357.478C710.472 356.069 710.371 354.659 710.17 353.25V349.022C709.969 340.566 709.767 331.707 709.566 322.446C709.365 313.185 709.767 303.521 710.774 293.454C711.781 294.863 712.989 297.179 714.398 300.4C716.009 303.42 716.915 306.843 717.116 310.668C720.337 311.675 723.357 313.487 726.176 316.104C728.995 318.721 731.813 320.835 734.632 322.446C736.847 323.654 738.961 324.359 740.974 324.56C742.987 324.761 745.001 323.956 747.014 322.144C744.799 312.681 741.679 304.326 737.652 297.078C733.827 289.83 728.793 283.891 722.552 279.26C720.337 277.649 717.921 276.441 715.304 275.636C712.687 274.831 710.774 272.817 709.566 269.596C712.989 261.945 717.116 255.1 721.948 249.06C726.78 242.819 731.411 236.577 735.84 230.336C739.867 230.537 743.591 230.034 747.014 228.826ZM854.828 239.094C855.432 239.497 856.137 239.899 856.942 240.302C857.143 255.201 856.841 268.589 856.036 280.468C855.432 292.347 853.419 303.823 849.996 314.896C847.58 313.285 844.862 312.48 841.842 312.48C839.023 312.48 836.003 312.581 832.782 312.782C830.97 312.983 829.057 313.185 827.044 313.386C825.232 313.587 823.319 313.587 821.306 313.386C821.507 311.977 821.608 310.265 821.608 308.252C821.809 306.037 821.91 303.722 821.91 301.306V291.944C822.111 288.723 822.413 285.703 822.816 282.884C826.239 282.079 830.567 281.575 835.802 281.374C841.037 281.173 845.567 280.871 849.392 280.468C845.164 277.045 840.735 273.925 836.104 271.106C831.473 268.086 826.239 265.871 820.4 264.462C819.796 262.65 819.595 261.14 819.796 259.932L821.004 255.704L821.608 253.892L822.212 251.476C822.413 250.469 822.212 249.362 821.608 248.154C821.205 246.946 820.803 245.939 820.4 245.134C821.004 242.315 822.011 240.302 823.42 239.094C825.031 237.886 826.843 237.081 828.856 236.678C830.467 236.275 832.279 236.074 834.292 236.074H840.936C842.949 236.275 845.063 236.376 847.278 236.376C849.493 236.376 851.707 236.275 853.922 236.074C853.922 237.483 854.224 238.49 854.828 239.094ZM728.894 176.278C731.31 173.057 732.317 169.433 731.914 165.406C731.511 161.379 729.8 158.359 726.78 156.346C723.76 154.131 720.136 152.722 715.908 152.118C711.881 151.313 707.955 151.212 704.13 151.816C701.11 152.219 697.889 152.621 694.466 153.024C691.043 153.427 687.621 154.232 684.198 155.44C687.017 161.279 690.439 165.406 694.466 167.822C698.694 170.037 703.929 172.251 710.17 174.466C711.781 176.479 712.586 179.499 712.586 183.526C712.787 187.553 713.391 190.975 714.398 193.794C715.405 192.385 716.411 191.076 717.418 189.868C718.626 188.459 719.834 187.15 721.042 185.942C723.861 182.721 726.478 179.499 728.894 176.278ZM798.958 285.602C799.965 290.031 800.468 294.863 800.468 300.098C800.669 305.333 800.267 310.567 799.26 315.802C794.428 316.003 789.697 316.104 785.066 316.104C780.435 315.903 776.006 315.601 771.778 315.198C771.174 310.366 770.671 305.333 770.268 300.098C770.067 294.863 770.067 290.132 770.268 285.904C771.073 285.904 771.778 286.005 772.382 286.206C773.187 286.206 773.993 286.307 774.798 286.508C778.221 286.911 781.643 287.213 785.066 287.414C788.69 287.414 793.321 286.81 798.958 285.602ZM799.864 253.892C799.663 257.919 799.965 262.348 800.77 267.18C795.334 268.388 790.2 269.193 785.368 269.596C780.536 269.797 775.402 270.2 769.966 270.804V261.744C769.966 259.127 770.067 256.61 770.268 254.194V249.06C770.469 247.248 770.57 245.436 770.57 243.624C774.798 242.215 779.529 241.208 784.764 240.604C790.2 239.799 795.032 239.597 799.26 240C800.065 245.033 800.267 249.664 799.864 253.892ZM1242.29 391.906C1242.9 389.49 1243 386.671 1242.6 383.45C1238.77 377.813 1234.84 372.276 1230.82 366.84C1226.79 361.404 1222.46 356.169 1217.83 351.136C1211.59 349.727 1205.35 347.009 1199.11 342.982C1193.07 338.754 1187.63 334.929 1182.8 331.506C1172.93 324.459 1163.57 317.312 1154.71 310.064C1146.06 302.816 1137.7 294.461 1129.65 284.998C1126.43 281.173 1122.9 277.347 1119.08 273.522C1115.45 269.697 1113.24 266.274 1112.43 263.254C1112.03 261.442 1111.83 259.529 1111.83 257.516C1112.03 255.301 1112.33 252.986 1112.74 250.57C1112.74 249.362 1112.84 248.053 1113.04 246.644C1113.24 245.235 1113.34 243.825 1113.34 242.416C1113.74 230.739 1114.25 219.263 1114.85 207.988C1115.45 196.713 1116.26 187.251 1117.27 179.6C1116.06 177.587 1114.65 175.775 1113.04 174.164C1111.43 172.553 1110.22 170.54 1109.41 168.124C1107.2 167.117 1104.98 165.909 1102.77 164.5C1100.56 162.889 1098.24 161.279 1095.82 159.668C1091.6 156.447 1087.17 153.527 1082.54 150.91C1078.11 148.293 1073.27 147.085 1068.04 147.286C1066.23 153.326 1066.33 158.46 1068.34 162.688C1070.36 166.916 1072.77 171.043 1075.59 175.07C1077 177.083 1078.31 179.197 1079.52 181.412C1080.93 183.425 1082.03 185.539 1082.84 187.754C1085.25 194.398 1086.97 201.646 1087.97 209.498C1088.98 217.149 1089.48 224.195 1089.48 230.638C1089.68 253.791 1086.86 275.435 1081.03 295.568C1075.39 315.5 1065.83 333.721 1052.34 350.23C1038.85 366.739 1020.73 381.336 997.976 394.02C993.949 393.617 990.527 394.221 987.708 395.832C985.091 397.443 984.386 399.154 985.594 400.966C989.621 404.389 994.654 406.1 1000.69 406.1C1006.73 406.1 1012.87 404.993 1019.12 402.778C1025.56 400.765 1031.2 398.047 1036.03 394.624C1041.06 391.403 1044.48 388.081 1046.3 384.658C1064.42 373.786 1078.11 360.095 1087.37 343.586C1096.83 327.077 1104.18 307.145 1109.41 283.79C1121.29 302.715 1132.77 321.137 1143.84 339.056C1155.12 356.975 1166.59 374.893 1178.27 392.812C1179.88 393.215 1181.49 393.718 1183.1 394.322C1184.91 394.926 1186.73 395.631 1188.54 396.436C1193.97 398.248 1199.61 399.959 1205.45 401.57C1211.49 403.382 1217.43 404.187 1223.27 403.986C1229.31 403.986 1234.95 402.174 1240.18 398.55C1240.99 396.537 1241.69 394.322 1242.29 391.906ZM1195.48 246.342C1199.11 243.725 1203.13 242.013 1207.56 241.208C1211.79 235.168 1213 230.034 1211.19 225.806C1209.38 221.377 1205.85 217.753 1200.62 214.934C1195.58 212.115 1190.05 210.102 1184.01 208.894C1178.17 207.485 1173.24 206.679 1169.21 206.478C1167.6 208.693 1167.1 210.706 1167.7 212.518C1168.3 214.33 1169.11 216.142 1170.12 217.954L1171.32 220.37C1171.93 220.974 1172.33 221.679 1172.53 222.484C1168.3 229.933 1163.17 236.477 1157.13 242.114C1151.09 247.55 1144.95 252.986 1138.71 258.422C1139.92 257.818 1140.92 257.919 1141.73 258.724C1142.73 259.529 1143.74 260.435 1144.75 261.442C1145.55 262.449 1146.46 263.455 1147.47 264.462C1148.47 265.469 1149.68 266.173 1151.09 266.576C1158.14 268.187 1164.28 267.482 1169.51 264.462C1174.95 261.442 1180.08 258.019 1184.91 254.194C1188.34 251.375 1191.86 248.758 1195.48 246.342ZM1043.28 279.26C1047.3 280.468 1051.33 280.065 1055.36 278.052C1055.76 268.388 1054.25 260.637 1050.83 254.798C1047.6 248.758 1043.18 243.926 1037.54 240.302C1032.1 236.678 1026.36 233.356 1020.32 230.336C1018.11 229.329 1016 228.323 1013.98 227.316L1007.94 223.692C1007.74 225.907 1007.84 228.222 1008.24 230.638C1008.85 232.853 1009.55 235.168 1010.36 237.584C1011.36 240.604 1012.17 243.725 1012.77 246.946C1013.58 249.966 1013.48 252.986 1012.47 256.006C1013.88 256.811 1015.29 257.919 1016.7 259.328C1018.31 260.737 1020.02 262.348 1021.83 264.16C1025.06 266.979 1028.48 269.898 1032.1 272.918C1035.73 275.938 1039.45 278.052 1043.28 279.26ZM1591.1 379.524C1599.16 381.135 1607.92 378.819 1617.38 372.578C1616.37 364.122 1613.85 357.277 1609.83 352.042C1605.8 346.606 1601.07 341.975 1595.63 338.15C1590.8 334.526 1585.57 331.305 1579.93 328.486C1574.29 325.667 1568.86 322.647 1563.62 319.426C1558.59 316.205 1554.06 312.279 1550.03 307.648C1553.45 304.829 1557.58 301.306 1562.41 297.078C1567.25 292.85 1572.08 288.521 1576.91 284.092C1581.74 279.461 1585.57 275.233 1588.39 271.408C1588.79 270.804 1589.59 269.294 1590.8 266.878C1592.21 264.261 1592.82 262.549 1592.61 261.744C1592.41 257.919 1591 255.201 1588.39 253.59C1585.97 251.778 1582.95 250.57 1579.33 249.966C1575.9 249.362 1572.38 248.859 1568.76 248.456C1565.13 248.053 1562.01 247.449 1559.39 246.644C1559.39 247.449 1559.29 248.053 1559.09 248.456C1558.89 248.859 1558.59 249.261 1558.19 249.664C1557.58 250.671 1557.28 251.476 1557.28 252.08C1557.48 252.483 1558.19 253.087 1559.39 253.892C1560.4 254.496 1561.31 255.301 1562.11 256.308C1563.12 257.315 1563.32 258.724 1562.72 260.536C1558.29 267.18 1553.66 273.723 1548.82 280.166C1544.19 286.407 1539.16 292.347 1533.72 297.984C1529.9 295.769 1527.18 293.152 1525.57 290.132C1524.16 286.911 1522.75 283.488 1521.34 279.864C1525.17 274.831 1528.49 268.791 1531.31 261.744C1534.33 254.697 1537.85 248.657 1541.88 243.624C1541.27 243.02 1540.97 242.416 1540.97 241.812C1541.17 241.007 1541.37 240.302 1541.58 239.698L1542.18 237.282C1542.38 236.477 1542.28 235.671 1541.88 234.866C1539.86 233.859 1537.95 232.651 1536.14 231.242C1534.53 229.833 1533.32 227.92 1532.52 225.504C1543.19 223.893 1554.16 222.585 1565.43 221.578C1576.91 220.571 1586.98 218.961 1595.63 216.746C1594.02 212.115 1591 208.995 1586.57 207.384C1582.14 205.572 1577.21 204.263 1571.78 203.458C1566.54 202.653 1561.71 201.445 1557.28 199.834C1552.25 202.049 1545.2 203.76 1536.14 204.968C1527.28 206.176 1518.83 207.283 1510.77 208.29C1513.39 204.062 1515.6 199.431 1517.42 194.398C1519.43 189.365 1521.44 184.432 1523.46 179.6C1521.24 173.761 1517.52 169.433 1512.28 166.614C1507.05 163.594 1501.81 160.775 1496.58 158.158C1496.18 159.366 1495.37 159.97 1494.16 159.97C1493.16 159.97 1492.05 159.869 1490.84 159.668C1489.03 159.265 1487.82 159.165 1487.22 159.366C1487.22 160.373 1487.01 161.077 1486.61 161.48L1486.01 162.084C1485.4 162.487 1485.1 162.99 1485.1 163.594L1490.54 170.842C1492.35 173.057 1493.96 175.573 1495.37 178.392C1493.76 183.627 1492.05 188.761 1490.24 193.794C1488.42 198.827 1486.41 203.659 1484.2 208.29C1483.79 208.491 1483.39 208.894 1482.99 209.498C1482.79 209.901 1482.48 210.303 1482.08 210.706C1481.68 210.907 1480.97 210.807 1479.97 210.404C1480.37 215.236 1479.57 219.867 1477.55 224.296C1475.54 228.524 1473.32 232.651 1470.91 236.678C1468.89 239.899 1467.08 243.121 1465.47 246.342C1464.06 249.362 1463.36 252.382 1463.36 255.402C1469.2 257.818 1473.73 258.12 1476.95 256.308C1480.37 254.496 1483.19 251.778 1485.4 248.154C1487.82 244.127 1490.44 239.597 1493.26 234.564C1496.07 229.531 1498.19 226.108 1499.6 224.296C1500.81 225.705 1502.62 226.712 1505.03 227.316C1507.45 227.719 1510.07 227.819 1512.89 227.618C1512.89 228.423 1513.09 229.631 1513.49 231.242C1513.89 232.853 1514.19 234.665 1514.4 236.678C1514.6 238.49 1514.5 240.403 1514.09 242.416C1513.49 245.436 1511.98 249.261 1509.56 253.892C1507.35 258.523 1504.63 263.455 1501.41 268.69C1498.39 273.723 1495.37 278.656 1492.35 283.488C1489.33 288.32 1486.91 292.447 1485.1 295.87C1480.67 303.923 1476.14 311.574 1471.51 318.822C1466.88 326.07 1461.04 331.506 1454 335.13C1454.8 327.278 1455.61 319.124 1456.41 310.668C1457.22 302.212 1458.53 295.467 1460.34 290.434C1463.56 290.031 1466.48 289.427 1469.1 288.622L1476.95 286.206C1475.94 282.783 1474.73 279.562 1473.32 276.542C1471.91 273.522 1470.71 270.301 1469.7 266.878C1466.48 264.663 1462.45 262.751 1457.62 261.14C1452.99 259.529 1448.36 258.12 1443.73 256.912C1439.3 255.503 1435.57 254.194 1432.55 252.986C1430.74 255.603 1428.12 257.415 1424.7 258.422C1421.48 259.429 1417.86 260.133 1413.83 260.536C1413.63 259.731 1413.23 259.227 1412.62 259.026C1412.22 258.825 1411.92 258.321 1411.72 257.516C1411.92 256.711 1412.22 256.006 1412.62 255.402C1413.02 254.597 1413.33 253.791 1413.53 252.986C1415.34 249.161 1416.75 245.033 1417.76 240.604C1418.76 236.175 1417.15 231.443 1412.92 226.41C1415.74 225.806 1419.97 225.202 1425.61 224.598C1431.45 223.793 1437.49 223.189 1443.73 222.786C1450.17 222.383 1455.71 222.585 1460.34 223.39C1460.94 222.383 1461.65 221.679 1462.45 221.276C1463.26 220.672 1464.16 220.169 1465.17 219.766C1466.58 219.162 1467.69 218.357 1468.49 217.35C1469.5 216.343 1469.5 214.431 1468.49 211.612L1466.68 211.008L1464.87 209.8C1460.24 207.585 1455.3 205.673 1450.07 204.062C1444.84 202.25 1439.3 202.25 1433.46 204.062C1433.26 201.243 1433.26 198.727 1433.46 196.512C1433.86 194.096 1434.27 191.881 1434.67 189.868C1435.27 187.653 1435.67 185.539 1435.88 183.526C1436.28 181.513 1436.18 179.499 1435.57 177.486C1434.57 173.459 1432.15 170.137 1428.33 167.52C1424.7 164.903 1420.47 163.191 1415.64 162.386C1410.81 161.379 1406.18 161.379 1401.75 162.386C1397.32 163.393 1393.8 165.507 1391.18 168.728C1394 173.359 1397.92 176.882 1402.96 179.298C1407.99 181.513 1412.62 184.13 1416.85 187.15C1416.65 190.975 1416.55 194.398 1416.55 197.418C1416.55 200.438 1416.65 203.357 1416.85 206.176C1412.02 206.377 1407.19 206.881 1402.35 207.686L1388.46 210.102C1379.2 211.713 1370.14 212.921 1361.28 213.726C1352.42 214.531 1343.77 213.122 1335.31 209.498C1335.31 210.505 1335.11 211.109 1334.71 211.31C1334.3 211.511 1333.8 211.612 1333.2 211.612C1332.59 211.612 1332.29 211.914 1332.29 212.518C1334.3 218.357 1337.42 223.692 1341.65 228.524C1346.08 233.356 1350.81 238.389 1355.85 243.624C1360.48 240.201 1365.61 237.483 1371.25 235.47C1377.09 233.457 1383.33 231.846 1389.97 230.638C1391.99 234.262 1392.69 239.597 1392.09 246.644C1391.48 253.691 1389.07 260.133 1384.84 265.972C1380.21 285.904 1373.46 305.534 1364.6 324.862C1355.95 343.989 1345.68 360.699 1333.8 374.994C1338.23 375.598 1341.35 376.907 1343.16 378.92C1345.18 380.933 1348.09 382.041 1351.92 382.242C1359.37 376.202 1365.61 369.155 1370.64 361.102C1375.88 352.847 1380.41 344.19 1384.23 335.13C1388.06 325.869 1391.78 316.809 1395.41 307.95C1399.03 298.89 1403.06 290.535 1407.49 282.884C1409.5 283.287 1411.51 283.186 1413.53 282.582C1415.54 281.777 1417.55 280.871 1419.57 279.864C1421.58 278.857 1423.49 278.052 1425.31 277.448C1427.32 276.844 1429.33 276.945 1431.35 277.75C1432.55 284.595 1433.06 292.447 1432.86 301.306C1432.65 309.963 1431.55 318.721 1429.53 327.58C1427.52 336.439 1424.5 344.492 1420.47 351.74C1416.65 358.988 1411.72 364.525 1405.68 368.35C1403.46 367.343 1400.74 366.035 1397.52 364.424C1394.5 362.813 1391.68 361.303 1389.07 359.894C1388.66 359.693 1388.16 359.391 1387.56 358.988C1387.15 358.384 1386.65 357.881 1386.05 357.478C1384.84 356.673 1383.73 355.867 1382.72 355.062C1381.72 354.257 1380.71 354.055 1379.7 354.458C1380.11 358.887 1381.01 363.619 1382.42 368.652C1383.83 373.484 1385.95 377.813 1388.76 381.638C1391.78 385.463 1395.61 388.081 1400.24 389.49C1401.85 393.315 1403.76 396.335 1405.98 398.55C1408.39 400.966 1411.51 402.375 1415.34 402.778C1417.35 402.778 1419.87 401.973 1422.89 400.362C1426.11 398.751 1429.13 396.637 1431.95 394.02C1434.97 391.403 1437.18 388.886 1438.59 386.47C1441.61 381.437 1443.93 375.9 1445.54 369.86C1447.15 363.82 1448.66 358.082 1450.07 352.646C1451.48 347.21 1453.19 342.881 1455.2 339.66C1460.64 343.485 1465.47 345.197 1469.7 344.794C1473.93 344.391 1477.65 342.68 1480.87 339.66C1483.89 336.841 1486.71 333.519 1489.33 329.694C1491.95 325.667 1494.46 321.741 1496.88 317.916C1499.5 314.091 1502.11 310.97 1504.73 308.554V311.272V314.594V330.298C1504.73 336.338 1504.63 342.579 1504.43 349.022C1504.23 355.465 1503.73 361.505 1502.92 367.142C1502.11 372.779 1501.01 377.108 1499.6 380.128C1501.21 385.564 1503.52 390.195 1506.54 394.02C1509.77 398.047 1512.28 402.677 1514.09 407.912C1516.31 408.516 1518.32 408.717 1520.13 408.516C1521.95 408.315 1523.36 407.006 1524.36 404.59C1524.56 394.121 1524.66 384.054 1524.66 374.39C1524.66 364.726 1524.56 354.76 1524.36 344.492V328.184V310.668C1528.39 315.903 1532.62 322.043 1537.05 329.09C1541.68 335.935 1546.61 342.881 1551.84 349.928C1557.08 356.773 1562.62 362.813 1568.45 368.048C1575.5 374.088 1583.05 377.913 1591.1 379.524ZM1960.75 289.83C1961.15 288.823 1960.75 287.615 1959.54 286.206C1955.72 283.79 1951.39 281.575 1946.56 279.562C1941.73 277.347 1936.79 275.938 1931.76 275.334C1926.93 274.529 1922.5 275.032 1918.47 276.844L1917.26 273.824C1916.86 272.817 1916.26 271.911 1915.45 271.106C1916.06 270.703 1916.66 270.2 1917.26 269.596L1919.08 267.784C1922.7 264.361 1927.13 260.637 1932.36 256.61C1937.8 252.382 1943.34 250.57 1948.97 251.174C1949.18 249.563 1949.18 248.154 1948.97 246.946C1948.77 245.738 1948.47 244.631 1948.07 243.624C1947.67 242.617 1947.36 241.611 1947.16 240.604C1946.96 239.597 1947.16 238.389 1947.77 236.98C1943.94 233.356 1938.91 230.839 1932.67 229.43C1926.63 228.021 1920.79 226.41 1915.15 224.598C1912.53 227.819 1908.91 229.732 1904.28 230.336C1899.65 230.94 1894.82 231.343 1889.78 231.544H1886.46C1881.83 231.745 1877.3 232.148 1872.87 232.752C1868.64 233.155 1865.02 234.765 1862 237.584C1864.62 242.215 1867.43 245.335 1870.45 246.946C1873.68 248.355 1877.1 248.959 1880.72 248.758C1882.33 248.557 1884.14 248.355 1886.16 248.154C1888.17 247.751 1890.29 247.248 1892.5 246.644C1896.12 245.839 1899.85 245.134 1903.67 244.53C1907.5 243.926 1910.92 244.027 1913.94 244.832C1911.93 248.456 1909.51 251.677 1906.69 254.496C1904.08 257.113 1901.26 259.731 1898.24 262.348C1895.02 259.731 1890.99 258.019 1886.16 257.214C1881.33 256.207 1877.6 256.107 1874.98 256.912C1876.59 260.335 1878.71 263.053 1881.33 265.066C1884.14 267.079 1886.86 269.193 1889.48 271.408C1892.1 273.421 1893.81 276.542 1894.61 280.77C1891.59 280.971 1888.67 281.173 1885.86 281.374L1877.4 281.978C1872.97 282.582 1868.54 283.085 1864.11 283.488C1859.68 283.689 1854.95 283.689 1849.92 283.488C1848.71 278.455 1848.91 274.73 1850.52 272.314C1851.73 270.301 1853.64 268.891 1856.26 268.086C1858.88 267.079 1861.29 266.173 1863.51 265.368C1865.92 264.563 1867.13 263.455 1867.13 262.046C1867.33 260.234 1867.03 258.825 1866.23 257.818C1865.62 256.811 1864.92 255.805 1864.11 254.798C1863.11 253.791 1862.3 252.785 1861.7 251.778C1861.09 250.57 1861.19 248.959 1862 246.946C1858.78 245.738 1854.35 244.027 1848.71 241.812C1843.07 239.396 1837.64 238.188 1832.4 238.188C1830.19 238.188 1827.97 238.893 1825.76 240.302C1823.54 241.51 1821.63 242.315 1820.02 242.718C1820.02 241.107 1820.12 239.698 1820.32 238.49C1820.52 237.282 1820.83 236.074 1821.23 234.866C1821.63 233.658 1821.93 232.45 1822.13 231.242C1822.34 230.034 1822.44 228.725 1822.44 227.316C1820.83 225.504 1819.21 223.591 1817.6 221.578C1815.99 219.565 1814.58 217.451 1813.38 215.236C1818.61 215.437 1823.95 215.337 1829.38 214.934C1834.82 214.33 1839.75 213.122 1844.18 211.31C1848.81 209.498 1852.13 206.78 1854.15 203.156C1850.92 199.733 1846.5 197.519 1840.86 196.512L1841.76 195.606C1842.57 195.002 1842.27 194.297 1840.86 193.492C1839.05 194.096 1836.23 194.801 1832.4 195.606C1828.78 196.411 1825.96 196.814 1823.95 196.814C1824.35 195.405 1824.85 193.995 1825.46 192.586L1827.27 188.358C1828.68 185.539 1829.89 182.62 1830.89 179.6C1831.9 176.58 1832.1 173.459 1831.5 170.238C1830.69 165.406 1828.27 161.883 1824.25 159.668C1820.22 157.453 1815.99 155.943 1811.56 155.138C1807.34 154.131 1804.11 153.326 1801.9 152.722C1801.5 152.923 1800.99 153.326 1800.39 153.93C1799.38 154.937 1798.18 155.943 1796.77 156.95C1795.36 157.755 1793.44 158.057 1791.03 157.856C1790.83 159.265 1790.93 160.473 1791.33 161.48L1792.54 163.896L1793.75 165.708C1794.15 166.312 1794.35 167.117 1794.35 168.124C1796.56 167.721 1798.58 168.023 1800.39 169.03C1802.4 169.835 1804.32 170.842 1806.13 172.05C1807.34 172.654 1808.44 173.258 1809.45 173.862C1810.46 174.466 1811.46 174.869 1812.47 175.07C1812.07 178.291 1811.97 181.11 1812.17 183.526C1812.37 185.942 1812.67 188.459 1813.07 191.076V193.794L1813.68 196.814C1811.46 197.015 1809.15 197.317 1806.73 197.72C1804.52 198.123 1802.2 198.525 1799.79 198.928C1792.94 200.337 1785.69 201.344 1778.04 201.948C1770.39 202.351 1762.44 200.841 1754.18 197.418C1754.18 197.619 1754.08 197.921 1753.88 198.324C1753.28 199.532 1752.77 200.74 1752.37 201.948C1752.17 202.955 1752.47 204.163 1753.28 205.572C1756.7 206.78 1759.32 209.095 1761.13 212.518C1762.94 215.941 1764.85 219.061 1766.87 221.88C1768.48 223.893 1770.49 225.504 1772.91 226.712C1775.32 227.719 1778.55 227.517 1782.57 226.108C1782.97 223.088 1784.89 221.075 1788.31 220.068C1791.73 219.061 1794.15 218.357 1795.56 217.954C1796.56 221.578 1797.87 224.598 1799.48 227.014C1798.07 228.826 1797.17 231.242 1796.77 234.262C1796.36 237.081 1795.86 239.899 1795.26 242.718C1794.65 245.335 1793.24 247.248 1791.03 248.456C1790.63 259.328 1789.01 269.193 1786.2 278.052C1783.58 286.911 1780.36 295.568 1776.53 304.024C1772.71 312.279 1768.78 321.339 1764.75 331.204C1766.77 332.009 1768.28 333.217 1769.28 334.828C1770.49 336.439 1771.5 337.647 1772.3 338.452C1775.32 339.056 1777.74 338.452 1779.55 336.64C1781.36 334.828 1783.08 332.714 1784.69 330.298C1785.69 328.687 1786.7 327.177 1787.71 325.768C1788.91 324.359 1790.22 323.251 1791.63 322.446V322.748C1792.84 324.963 1794.25 328.385 1795.86 333.016C1797.67 337.445 1797.77 341.371 1796.16 344.794C1799.58 346.606 1802.3 348.921 1804.32 351.74C1806.53 354.357 1809.55 355.968 1813.38 356.572C1819.82 357.579 1825.36 356.069 1829.99 352.042C1834.82 348.015 1838.74 342.68 1841.76 336.036C1845.19 328.587 1847.5 320.433 1848.71 311.574C1849.92 302.514 1850.32 294.561 1849.92 287.716C1855.76 294.561 1862.4 298.588 1869.85 299.796C1877.3 301.004 1886.26 299.997 1896.73 296.776C1897.73 301.809 1898.24 307.346 1898.24 313.386C1898.44 319.426 1897.73 324.862 1896.12 329.694C1894.51 334.325 1891.49 337.345 1887.06 338.754C1881.43 340.566 1876.49 340.365 1872.27 338.15C1868.24 335.734 1864.11 332.815 1859.88 329.392L1856.86 326.976C1855.86 325.969 1854.75 325.063 1853.54 324.258L1854.45 327.278C1855.25 329.09 1854.95 330.801 1853.54 332.412C1856.16 334.425 1858.37 337.546 1860.19 341.774C1862.2 346.002 1863.91 348.921 1865.32 350.532C1869.55 352.344 1873.68 354.257 1877.7 356.27C1881.73 358.283 1884.65 361.605 1886.46 366.236C1890.29 364.223 1894.21 364.424 1898.24 366.84C1902.87 364.223 1906.59 360.8 1909.41 356.572C1912.43 352.344 1914.65 347.713 1916.06 342.68C1918.27 335.029 1919.18 326.976 1918.77 318.52C1918.37 310.064 1917.36 302.413 1915.75 295.568C1919.98 294.763 1924.01 294.36 1927.83 294.36C1931.86 294.36 1935.79 294.461 1939.61 294.662C1942.83 294.863 1945.95 294.964 1948.97 294.964C1952.2 294.964 1955.42 294.763 1958.64 294.36C1958.84 293.957 1959.24 293.253 1959.85 292.246C1960.25 291.441 1960.55 290.635 1960.75 289.83ZM1964.07 392.208C1965.48 390.195 1967.09 388.785 1968.91 387.98C1969.31 386.571 1968.91 385.564 1967.7 384.96C1966.49 384.356 1965.18 383.853 1963.77 383.45C1962.36 383.047 1961.05 382.544 1959.85 381.94C1958.64 381.336 1957.93 380.329 1957.73 378.92L1954.71 378.316C1953.91 377.913 1953 377.511 1951.99 377.108C1949.78 376.303 1947.46 375.699 1945.05 375.296C1942.83 374.692 1940.42 374.692 1937.8 375.296C1935.99 372.679 1933.67 371.269 1930.85 371.068C1928.04 370.665 1925.82 369.759 1924.21 368.35C1917.77 371.169 1910.72 372.679 1903.07 372.88C1895.62 373.081 1888.17 373.081 1880.72 372.88C1879.92 372.679 1879.11 372.578 1878.31 372.578H1875.89C1857.97 368.954 1839.35 364.827 1820.02 360.196C1800.89 355.364 1782.67 350.431 1765.36 345.398C1765.56 337.345 1764.15 330.902 1761.13 326.07C1758.11 321.238 1754.49 316.507 1750.26 311.876C1749.25 310.668 1748.14 309.46 1746.94 308.252C1745.73 306.843 1744.62 305.433 1743.61 304.024C1747.64 296.575 1751.87 290.333 1756.3 285.3C1760.93 280.065 1765.76 274.025 1770.79 267.18C1771 266.979 1771.4 266.777 1772 266.576C1773.01 265.972 1774.02 265.469 1775.02 265.066C1776.03 264.663 1777.44 264.563 1779.25 264.764C1778.04 260.939 1775.93 258.019 1772.91 256.006C1769.89 253.993 1766.77 252.181 1763.55 250.57C1760.32 248.758 1757.51 246.543 1755.09 243.926C1745.43 248.557 1735.16 251.174 1724.29 251.778C1713.62 252.382 1702.64 251.979 1691.37 250.57C1690.97 251.778 1690.66 253.187 1690.46 254.798C1690.46 256.207 1691.07 257.516 1692.27 258.724C1695.7 260.133 1698.72 262.65 1701.33 266.274C1703.95 269.697 1706.17 272.515 1707.98 274.73C1709.39 274.126 1710.6 273.925 1711.6 274.126C1712.81 274.327 1713.92 274.629 1714.92 275.032C1715.93 275.233 1716.94 275.535 1717.94 275.938C1719.15 276.139 1720.46 275.938 1721.87 275.334C1722.68 272.717 1724.59 271.005 1727.61 270.2C1730.63 269.193 1733.65 268.69 1736.67 268.69C1739.89 268.489 1742.2 268.489 1743.61 268.69C1740.39 273.119 1737.17 277.75 1733.95 282.582C1730.73 287.213 1727.1 291.541 1723.08 295.568C1722.88 301.809 1723.98 306.541 1726.4 309.762C1729.02 312.983 1731.84 316.003 1734.86 318.822C1735.26 319.426 1735.76 320.03 1736.37 320.634C1736.97 321.037 1737.57 321.54 1738.18 322.144C1740.8 324.761 1743.01 327.781 1744.82 331.204C1746.84 334.627 1747.64 339.459 1747.24 345.7C1739.18 347.311 1732.04 347.713 1725.8 346.908C1719.55 346.103 1713.11 344.089 1706.47 340.868C1705.06 342.479 1702.94 343.385 1700.13 343.586C1697.31 343.787 1695.39 344.995 1694.39 347.21C1696.8 347.814 1699.02 349.425 1701.03 352.042C1703.05 354.659 1704.96 357.579 1706.77 360.8C1708.78 364.021 1710.9 366.941 1713.11 369.558C1715.33 371.974 1717.94 373.383 1720.96 373.786C1723.38 374.189 1725.59 373.987 1727.61 373.182C1729.82 372.175 1731.84 371.068 1733.65 369.86C1734.86 369.055 1735.96 368.35 1736.97 367.746C1738.18 367.142 1739.39 366.739 1740.59 366.538C1749.45 364.927 1756.7 364.223 1762.34 364.424C1768.18 364.424 1773.61 365.33 1778.65 367.142C1783.88 368.753 1789.92 371.068 1796.77 374.088C1797.37 374.289 1797.77 374.39 1797.97 374.39C1803.21 376.403 1808.24 378.215 1813.07 379.826C1817.91 381.437 1822.23 383.047 1826.06 384.658C1827.07 385.061 1828.07 385.564 1829.08 386.168C1830.09 386.772 1830.99 387.275 1831.8 387.678C1833.81 388.886 1835.72 389.893 1837.54 390.698C1839.35 391.503 1841.56 391.805 1844.18 391.604C1844.18 392.611 1843.88 393.013 1843.27 392.812C1842.67 392.812 1842.27 393.114 1842.07 393.718C1843.68 394.523 1844.99 394.926 1845.99 394.926C1847 395.127 1848.01 395.127 1849.01 394.926H1851.73C1852.74 395.127 1853.84 395.631 1855.05 396.436C1854.65 396.839 1853.84 396.939 1852.64 396.738C1851.23 396.738 1850.42 396.939 1850.22 397.342C1856.46 399.758 1861.9 402.073 1866.53 404.288C1871.16 406.503 1875.89 408.516 1880.72 410.328C1885.76 412.14 1892 413.65 1899.45 414.858C1900.65 414.053 1901.86 413.65 1903.07 413.65H1907.3C1908.71 413.851 1910.02 413.952 1911.22 413.952C1912.43 413.952 1913.54 413.449 1914.55 412.442C1914.95 412.442 1915.35 412.744 1915.75 413.348C1916.16 414.153 1916.76 414.455 1917.57 414.254C1917.77 414.254 1918.17 414.153 1918.77 413.952L1920.59 413.348C1921.39 413.348 1922 413.65 1922.4 414.254L1935.69 408.818C1940.32 407.207 1945.45 405.395 1951.09 403.382C1954.91 401.973 1957.73 400.261 1959.54 398.248C1961.36 396.235 1962.87 394.221 1964.07 392.208ZM1913.64 208.592C1926.12 206.579 1937.9 205.572 1948.97 205.572C1950.38 204.565 1950.89 203.257 1950.48 201.646C1950.28 199.834 1949.68 198.022 1948.67 196.21C1942.23 192.586 1935.38 190.975 1928.14 191.378C1920.89 191.579 1913.74 192.284 1906.69 193.492C1902.67 194.096 1898.74 194.599 1894.92 195.002C1891.09 195.405 1887.37 195.505 1883.74 195.304C1884.95 190.673 1886.26 186.244 1887.67 182.016C1889.28 177.587 1890.49 172.855 1891.29 167.822C1887.27 160.977 1882.23 156.849 1876.19 155.44C1870.15 154.031 1864.01 153.326 1857.77 153.326C1857.77 153.729 1857.57 154.131 1857.17 154.534C1856.76 155.541 1856.66 156.547 1856.86 157.554C1859.08 160.171 1860.89 163.292 1862.3 166.916C1863.91 170.339 1865.62 173.56 1867.43 176.58C1865.42 179.399 1864.21 182.62 1863.81 186.244C1863.41 189.868 1862.8 193.19 1862 196.21C1861.19 199.23 1859.28 201.545 1856.26 203.156C1857.07 206.579 1856.76 209.8 1855.35 212.82C1854.15 215.639 1852.64 218.457 1850.82 221.276C1849.41 223.491 1848.11 225.705 1846.9 227.92C1845.89 229.933 1845.49 232.047 1845.69 234.262C1849.31 236.074 1852.54 236.678 1855.35 236.074C1858.17 235.269 1860.79 233.859 1863.21 231.846C1866.43 229.027 1869.25 225.705 1871.66 221.88C1874.28 217.853 1876.8 214.531 1879.21 211.914C1889.68 211.511 1901.16 210.404 1913.64 208.592ZM1819.42 259.026C1821.43 258.623 1823.64 258.523 1826.06 258.724V259.932C1826.87 269.193 1827.37 278.253 1827.57 287.112C1827.77 295.971 1826.66 303.923 1824.25 310.97C1822.03 318.017 1817.5 323.453 1810.66 327.278C1809.45 326.875 1808.34 326.372 1807.34 325.768C1806.53 325.164 1805.62 324.56 1804.62 323.956C1802.81 322.748 1800.79 321.741 1798.58 320.936C1796.56 320.131 1793.85 319.929 1790.42 320.332C1794.25 314.695 1797.27 308.353 1799.48 301.306C1801.7 294.259 1803.81 287.213 1805.83 280.166C1807.84 272.918 1810.36 266.173 1813.38 259.932C1815.39 259.529 1817.4 259.227 1819.42 259.026ZM1733.95 209.498C1736.57 209.095 1739.39 207.887 1742.41 205.874C1741.2 199.029 1738.48 193.693 1734.25 189.868C1730.23 186.043 1725.39 183.123 1719.76 181.11C1714.12 179.097 1708.08 177.486 1701.64 176.278C1702.64 179.902 1703.85 183.123 1705.26 185.942C1706.87 188.761 1707.78 192.284 1707.98 196.512C1711.4 197.921 1714.62 200.035 1717.64 202.854C1720.66 205.471 1723.78 207.384 1727 208.592C1729.22 209.397 1731.53 209.699 1733.95 209.498Z" fill="white"/>
</svg>
