<svg width="48" height="48" viewBox="0 0 48 48" fill="none" xmlns="http://www.w3.org/2000/svg">
<path d="M23.9603 0C10.7107 0 0 10.7107 0 23.9603C0 37.2099 10.7107 48 23.9603 48C37.2099 48 48 37.2099 48 23.9603C48 10.7107 37.2099 0 23.9603 0ZM23.9603 44.4298C12.6942 44.4298 3.57025 35.2264 3.57025 23.9603C3.57025 12.6942 12.6942 3.57025 23.9603 3.57025C35.2264 3.57025 44.4298 12.7736 44.4298 24.0397C44.4298 35.2264 35.2264 44.4298 23.9603 44.4298Z" fill="#A62014"/>
<path d="M25.2304 17.4546C24.5164 16.7405 23.4056 16.7405 22.6916 17.4546L11.9808 27.9273C11.2668 28.6414 11.2668 29.7521 11.9808 30.4661C12.2982 30.7835 12.7742 31.0215 13.2503 31.0215C13.7263 31.0215 14.123 30.8628 14.5197 30.5455L23.961 21.1835L33.4023 30.4661C34.1164 31.1802 35.2271 31.1802 35.9412 30.4661C36.6552 29.7521 36.6552 28.6414 35.9412 27.9273L25.2304 17.4546Z" fill="#A62014"/>
</svg>
