<svg width="188" height="188" viewBox="0 0 188 188" fill="none" xmlns="http://www.w3.org/2000/svg">
<path d="M173.483 79.4829H136.829C130.422 79.4829 125.235 74.2908 125.235 67.8882C125.235 61.483 130.422 56.2913 136.829 56.2913H150.3C158.316 56.2913 164.818 49.7914 164.818 41.7742C164.818 33.7566 158.315 27.2567 150.3 27.2567H81.4503C73.428 27.2567 66.9306 33.7566 66.9306 41.7742C66.9306 49.7917 73.428 56.2913 81.4503 56.2913H94.9165C101.322 56.2913 106.513 61.483 106.513 67.8882C106.513 74.2908 101.322 79.4829 94.9165 79.4829H14.5171C6.50216 79.4829 0 85.9847 0 94C0 102.015 6.50216 108.517 14.5171 108.517H45.9763C52.3793 108.517 57.571 113.709 57.571 120.112C57.571 126.517 52.3793 131.709 45.9763 131.709H32.9206C24.9005 131.709 18.4009 138.209 18.4009 146.226C18.4009 154.242 24.9005 160.743 32.9206 160.743H134.279C142.296 160.743 148.796 154.241 148.796 146.226C148.796 138.208 142.296 131.709 134.279 131.709H87.8871C81.4818 131.709 76.288 126.517 76.288 120.112C76.288 113.709 81.4818 108.517 87.8871 108.517H173.483C181.498 108.517 188 102.015 188 94C188 85.9847 181.498 79.4829 173.483 79.4829Z" fill="#A62014"/>
</svg>
