<svg width="188" height="188" viewBox="0 0 188 188" fill="none" xmlns="http://www.w3.org/2000/svg">
<path d="M14.5171 79.4829H51.1705C57.5779 79.4829 62.7652 74.2908 62.7652 67.8882C62.7652 61.483 57.5783 56.2913 51.1705 56.2913H37.6995C29.6842 56.2913 23.1824 49.7914 23.1824 41.7742C23.1824 33.7566 29.6845 27.2567 37.6995 27.2567H106.55C114.572 27.2567 121.069 33.7566 121.069 41.7742C121.069 49.7917 114.572 56.2913 106.55 56.2913H93.0835C86.6783 56.2913 81.4866 61.483 81.4866 67.8882C81.4866 74.2908 86.6783 79.4829 93.0835 79.4829H173.483C181.498 79.4829 188 85.9847 188 94C188 102.015 181.498 108.517 173.483 108.517H142.024C135.621 108.517 130.429 113.709 130.429 120.112C130.429 126.517 135.621 131.709 142.024 131.709H155.079C163.1 131.709 169.599 138.209 169.599 146.226C169.599 154.242 163.1 160.743 155.079 160.743H53.7214C45.7038 160.743 39.2042 154.241 39.2042 146.226C39.2042 138.208 45.7038 131.709 53.7214 131.709H100.113C106.518 131.709 111.712 126.517 111.712 120.112C111.712 113.709 106.518 108.517 100.113 108.517H14.5171C6.50216 108.517 0 102.015 0 94C0 85.9847 6.50216 79.4829 14.5171 79.4829Z" fill="#A15C38"/>
</svg>
